<svg xmlns="http://www.w3.org/2000/svg" viewBox="0 0 480 692.56"><defs><style>.cls-1{fill:#df4d2d;}.cls-2{fill:#f1614d;}.cls-3{fill:#f5846c;}.cls-4{fill:#f0edef;fill-rule:evenodd;}.cls-5{fill:#716564;}.cls-6{fill:#a49691;}.cls-7{fill:#4d4544;}.cls-8{fill:none;stroke:#4d4544;stroke-miterlimit:10;stroke-width:3px;}</style></defs><g id="Layer_2" data-name="Layer 2"><g id="LOGO_ARARA_Big"><path class="cls-1" d="M145.51,539.49,195.25,499A83,83,0,0,1,312,511l-50.79,41.34a81.61,81.61,0,0,1-114.81-11.78Z"/><path class="cls-2" d="M411,633.64l1.3-.41Z"/><path class="cls-3" d="M470,552.13c-24.21-12.42-52.66-9.65-76.48,4.74a49.25,49.25,0,0,1-17.13,6.52l-.25,0V426.9a74.74,74.74,0,0,0-74.74-74.74H250.45V567.68a74.75,74.75,0,0,0,74.74,74.75H468a80.06,80.06,0,0,0-18.26-51Z"/><path class="cls-1" d="M400.21,642.43H468c-.27-12.42-1.76-19.61-6.75-32.24L433,624A42.41,42.41,0,0,1,400.21,642.43Z"/><path class="cls-2" d="M324.55,406.88c5.84-5.2,15.21-16.53,31-16.53a40.56,40.56,0,0,1,12.18,2.07,74.72,74.72,0,0,0-66.31-40.26H250.45v93.21C299.85,446.38,309.56,420.23,324.55,406.88Z"/><path class="cls-4" d="M297.42,395.61a16.46,16.46,0,0,0,23.3,0L332.38,384l-11.66-11.65a16.48,16.48,0,0,0-23.3,23.3Z"/><path class="cls-2" d="M458.69,574.1,433,624l47-23A80.36,80.36,0,0,0,458.69,574.1Z"/><path class="cls-5" d="M27.75,2.79c-1,1.75-1.87,4.41-2.9,8.23L1.58,96.85A36.2,36.2,0,0,0,0,104.47L64.76,67.34Z"/><path class="cls-6" d="M134.39,27.41A36.64,36.64,0,0,0,127,24.92L41.19,1.65C37.36.62,34.65,0,32.62,0l37,64.55Z"/><path class="cls-6" d="M2.78,109.35a48.42,48.42,0,0,0,6.15,3.12l98,44.46c4.93,2.24,8.5,3.42,11.16,3.37L67.55,72.2Z"/><path class="cls-5" d="M122.94,157.51c1.38-2.26,2.16-5.94,2.72-11.33l11.12-107a48.3,48.3,0,0,0,.41-6.88L72.42,69.41Z"/><path class="cls-5" d="M158.89,176.64l-16.95-4.91a1.68,1.68,0,0,0-2.14,1.75l2,24.79a1.67,1.67,0,0,0,3,.87l14.94-19.88A1.68,1.68,0,0,0,158.89,176.64Z"/><path class="cls-6" d="M208.11,186.5,192,184a1.54,1.54,0,0,0-1.75,1.85L195,208.17a1.54,1.54,0,0,0,2.85.44l11.32-19.82A1.54,1.54,0,0,0,208.11,186.5Z"/><path class="cls-5" d="M254.3,189.58l-14.76-.41a1.4,1.4,0,0,0-1.35,1.86l6.86,19.33a1.39,1.39,0,0,0,2.59.07l7.91-18.93A1.39,1.39,0,0,0,254.3,189.58Z"/><path class="cls-6" d="M294.7,187.79l-12.91,1.06a1.21,1.21,0,0,0-1,1.74l7.81,15.85a1.21,1.21,0,0,0,2.24-.19l5.1-16.91A1.2,1.2,0,0,0,294.7,187.79Z"/><path class="cls-5" d="M281.38,182.76l12.73-1a1.2,1.2,0,0,0,1-1.72l-7.72-15.77a1.2,1.2,0,0,0-2.22.18l-5,16.83A1.2,1.2,0,0,0,281.38,182.76Z"/><path class="cls-5" d="M208.85,180.34l-16.13-2.5a1.56,1.56,0,0,1-1.11-2.3l11.35-20a1.55,1.55,0,0,1,2.87.44l4.77,22.5A1.55,1.55,0,0,1,208.85,180.34Z"/><path class="cls-6" d="M254.57,183.43l-14.66-.4a1.38,1.38,0,0,1-1.24-1.91l7.85-18.82a1.38,1.38,0,0,1,2.58.07l6.81,19.22A1.38,1.38,0,0,1,254.57,183.43Z"/><path class="cls-6" d="M160.56,170.42l-16.85-4.82a1.67,1.67,0,0,1-.88-2.6l14.78-19.81a1.67,1.67,0,0,1,3,.86l2.07,24.63A1.66,1.66,0,0,1,160.56,170.42Z"/><path class="cls-4" d="M250.41,352.16c25.6,26.8,25.19,66.4,0,93.21Z"/><path class="cls-7" d="M250.18,668.52a12,12,0,1,1-12,12A12,12,0,0,1,250.18,668.52Zm-4.61,12a4.61,4.61,0,1,0,4.61-4.61A4.61,4.61,0,0,0,245.57,680.54Z"/><path class="cls-7" d="M286.45,668.52a12,12,0,1,1-12,12A12,12,0,0,1,286.45,668.52Zm-4.61,12a4.61,4.61,0,1,0,4.61-4.61A4.61,4.61,0,0,0,281.84,680.54Z"/><path class="cls-5" d="M296.25,624c6.5,0,7,.51,7,7v34.73c0,6.51-.51,7-7,7H241c-7.73,0-8.77-1.34-6.78-8.82a34.16,34.16,0,0,1,33-25.32h1.58V631c0-6.5.51-7,7-7Z"/><path class="cls-7" d="M358.27,670.55a12,12,0,1,1-3.19,16.7A12,12,0,0,1,358.27,670.55Zm2.94,12.54a4.61,4.61,0,1,0,1.23-6.4A4.61,4.61,0,0,0,361.21,683.09Z"/><path class="cls-7" d="M388.28,650.19a12,12,0,1,1-3.19,16.7A12,12,0,0,1,388.28,650.19Zm2.94,12.53a4.61,4.61,0,1,0,1.23-6.4A4.61,4.61,0,0,0,391.22,662.72Z"/><path class="cls-5" d="M371.4,607.85c5.38-3.65,6.08-3.52,9.74,1.86l19.5,28.74c3.65,5.38,3.51,6.09-1.87,9.74l-45.69,31c-6.4,4.34-8,3.81-10.57-3.49a34.16,34.16,0,0,1,13.08-39.48l1.31-.88-4.27-6.29c-3.65-5.38-3.52-6.09,1.86-9.74Z"/><path class="cls-6" d="M212.37,411.17a38.31,38.31,0,0,0,38.08,34.2c9.19-11.13,9.17-43.9,0-43.9-1.33,2.51-3.74,6.08-7.59,7-7.47,1.81-13.21-8.09-20.89-6.61C219.48,402.34,211.28,401,212.37,411.17Z"/><path class="cls-8" d="M122.52,172.05v84.58a16.83,16.83,0,0,0,16.83,16.83h28.76a16.83,16.83,0,0,1,16.83,16.83V382.1a16.82,16.82,0,0,0,16.83,16.83h25.85a16.84,16.84,0,0,1,16.83,16.83v24.95a16.82,16.82,0,0,0,16.83,16.83h3"/><circle class="cls-7" cx="309.07" cy="383.96" r="9.28"/><path class="cls-5" d="M250.45,352.16v49.31c-27-1.53-42.42,11.39-46,14.1a.19.19,0,0,1-.18,0,.19.19,0,0,1-.09-.15v-17A46.32,46.32,0,0,1,250.45,352.16Z"/><path class="cls-2" d="M304.66,482.2l15.69,62.18A83,83,0,0,0,421.1,604.51l-16-63.49A81.6,81.6,0,0,0,306,481.87Z"/></g></g></svg>