<svg xmlns="http://www.w3.org/2000/svg" viewBox="0 0 566.33 817.13"><defs><style>.cls-1{fill:#f1614d;}.cls-2{fill:#f5846c;}.cls-3{fill:#df4d2d;}.cls-4{fill:#f0edef;fill-rule:evenodd;}.cls-5{fill:#716564;}.cls-6{fill:#a49691;}.cls-7{fill:#4d4544;}.cls-8{fill:none;stroke:#4d4544;stroke-miterlimit:10;stroke-width:6px;}</style></defs><g id="Layer_2" data-name="Layer 2"><g id="LOGO_ARARA"><path class="cls-1" d="M171.68,636.52l58.69-47.76a97.88,97.88,0,0,1,137.71,14.13l-59.93,48.77a96.28,96.28,0,0,1-135.46-13.9Z"/><path class="cls-1" d="M485,747.6c.52-.15,1-.31,1.54-.48C486,747.29,485.49,747.45,485,747.6Z"/><path class="cls-2" d="M554.53,651.44C526,636.78,492.39,640.06,464.29,657a58.06,58.06,0,0,1-20.21,7.69l-.29,0V503.68A88.18,88.18,0,0,0,355.6,415.5H295.49V669.78A88.18,88.18,0,0,0,383.68,758H425l127.2,0a94.51,94.51,0,0,0-21.54-60.16Z"/><path class="cls-3" d="M472.19,758h80c-.32-14.65-2.08-23.14-8-38l-33.36,16.34A50.08,50.08,0,0,1,472.19,758Z"/><path class="cls-1" d="M382.92,480.06c6.77-6.27,17.95-19.51,36.54-19.51A47.77,47.77,0,0,1,433.83,463a88.14,88.14,0,0,0-78.23-47.5H295.49v110C353.79,526.67,364.94,495.46,382.92,480.06Z"/><path class="cls-4" d="M350.91,466.77a19.45,19.45,0,0,0,27.5,0L392.16,453l-13.75-13.74a19.44,19.44,0,0,0-27.5,27.49Z"/><path class="cls-1" d="M541.2,677.36l-30.28,58.88h0l55.41-27.1A94.78,94.78,0,0,0,541.2,677.36Z"/><path class="cls-5" d="M32.74,3.29c-1.22,2.07-2.2,5.2-3.42,9.71L1.86,114.27c-1.11,4.08-1.81,6.87-1.86,9L76.41,79.45Z"/><path class="cls-6" d="M158.56,32.34c-1.85-1-4.62-1.83-8.7-2.93L48.6,2C44.08.73,40.89,0,38.48,0L82.15,76.16Z"/><path class="cls-6" d="M3.28,129a56.07,56.07,0,0,0,7.25,3.68l115.61,52.47c5.82,2.64,10,4,13.17,4L79.7,85.19Z"/><path class="cls-5" d="M145.05,185.85c1.63-2.68,2.55-7,3.21-13.38L161.38,46.2a56.12,56.12,0,0,0,.49-8.12L85.44,81.9Z"/><path class="cls-5" d="M187.46,208.41l-20-5.79a2,2,0,0,0-2.52,2.06l2.36,29.25a2,2,0,0,0,3.56,1L188.5,211.5A2,2,0,0,0,187.46,208.41Z"/><path class="cls-6" d="M245.54,220l-19-2.94a1.82,1.82,0,0,0-2.06,2.19l5.68,26.33a1.83,1.83,0,0,0,3.37.52l13.35-23.39A1.82,1.82,0,0,0,245.54,220Z"/><path class="cls-5" d="M300,223.68l-17.41-.48a1.64,1.64,0,0,0-1.59,2.19l8.08,22.81a1.64,1.64,0,0,0,3.06.08L301.51,226A1.64,1.64,0,0,0,300,223.68Z"/><path class="cls-6" d="M347.7,221.56l-15.23,1.26a1.43,1.43,0,0,0-1.16,2.05l9.21,18.7a1.42,1.42,0,0,0,2.64-.22l6-20A1.43,1.43,0,0,0,347.7,221.56Z"/><path class="cls-5" d="M332,215.64l15-1.25a1.4,1.4,0,0,0,1.15-2l-9.1-18.62a1.41,1.41,0,0,0-2.62.22l-5.92,19.86A1.41,1.41,0,0,0,332,215.64Z"/><path class="cls-5" d="M246.41,212.77l-19-2.94a1.82,1.82,0,0,1-1.31-2.71l13.39-23.61a1.83,1.83,0,0,1,3.38.53l5.63,26.55A1.82,1.82,0,0,1,246.41,212.77Z"/><path class="cls-6" d="M300.35,216.42,283.06,216a1.63,1.63,0,0,1-1.46-2.26l9.26-22.2a1.63,1.63,0,0,1,3,.09l8,22.67A1.62,1.62,0,0,1,300.35,216.42Z"/><path class="cls-6" d="M189.44,201.08l-19.88-5.69a2,2,0,0,1-1-3.07L186,169a2,2,0,0,1,3.54,1L191.94,199A2,2,0,0,1,189.44,201.08Z"/><path class="cls-4" d="M295.45,415.5c30.21,31.63,29.73,78.35,0,110Z"/><path class="cls-7" d="M295.18,788.76A14.19,14.19,0,1,1,281,802.94,14.18,14.18,0,0,1,295.18,788.76Zm-5.44,14.18a5.44,5.44,0,1,0,5.44-5.43A5.43,5.43,0,0,0,289.74,802.94Z"/><path class="cls-7" d="M338,788.76a14.19,14.19,0,1,1-14.19,14.18A14.18,14.18,0,0,1,338,788.76Zm-5.44,14.18a5.44,5.44,0,1,0,5.44-5.43A5.43,5.43,0,0,0,332.53,802.94Z"/><path class="cls-5" d="M349.53,736.24c7.68,0,8.28.6,8.28,8.27v41c0,7.67-.6,8.27-8.28,8.27H284.37c-9.12,0-10.35-1.59-8-10.41a40.3,40.3,0,0,1,38.93-29.87h1.86v-9c0-7.67.6-8.27,8.27-8.27Z"/><path class="cls-7" d="M422.74,791.21a14.19,14.19,0,1,1-3.77,19.7A14.18,14.18,0,0,1,422.74,791.21ZM426.21,806a5.44,5.44,0,1,0,1.45-7.56A5.44,5.44,0,0,0,426.21,806Z"/><path class="cls-7" d="M458.15,767.18a14.18,14.18,0,1,1-3.77,19.7A14.17,14.17,0,0,1,458.15,767.18ZM461.62,782a5.44,5.44,0,1,0,1.44-7.56A5.43,5.43,0,0,0,461.62,782Z"/><path class="cls-5" d="M438.23,717.22c6.35-4.31,7.18-4.15,11.49,2.2l23,33.91c4.31,6.34,4.15,7.18-2.2,11.49l-53.92,36.59c-7.55,5.12-9.45,4.5-12.46-4.12a40.31,40.31,0,0,1,15.43-46.58l1.54-1-5-7.42c-4.3-6.35-4.14-7.18,2.2-11.49Z"/><path class="cls-6" d="M250.57,485.13a45.18,45.18,0,0,0,44.92,40.34c10.85-13.13,10.83-51.78,0-51.78-1.57,2.95-4.41,7.17-9,8.27-8.81,2.13-15.59-9.55-24.65-7.81C259,474.71,249.29,473.1,250.57,485.13Z"/><path class="cls-8" d="M144.56,203v99.79a19.85,19.85,0,0,0,19.85,19.85h33.94A19.86,19.86,0,0,1,218.2,342.5V450.83a19.86,19.86,0,0,0,19.86,19.86h30.5a19.85,19.85,0,0,1,19.85,19.85V520a19.86,19.86,0,0,0,19.86,19.86h3.54"/><circle class="cls-7" cx="364.66" cy="453.02" r="10.95"/><path class="cls-5" d="M295.5,415.5v58.19c-31.86-1.81-50.05,13.43-54.33,16.63a.18.18,0,0,1-.2,0,.18.18,0,0,1-.11-.17v-20A54.65,54.65,0,0,1,295.5,415.5Z"/><path class="cls-1" d="M359.45,568.93,378,642.29a97.89,97.89,0,0,0,118.87,71l-18.91-74.91A96.29,96.29,0,0,0,361,568.54Z"/></g></g></svg>