<svg xmlns="http://www.w3.org/2000/svg" viewBox="0 0 415 598.78"><defs><style>.cls-1{fill:#f1614d;}.cls-2{fill:#f5846c;}.cls-3{fill:#df4d2d;}.cls-4{fill:#f0edef;fill-rule:evenodd;}.cls-5{fill:#716564;}.cls-6{fill:#a49691;}.cls-7{fill:#4d4544;}.cls-8{fill:none;stroke:#4d4544;stroke-miterlimit:10;stroke-width:6px;}</style></defs><g id="Layer_2" data-name="Layer 2"><g id="LOGO_ARARA"><path class="cls-1" d="M125.81,466.43l43-35a71.73,71.73,0,0,1,100.91,10.35l-43.91,35.75a70.56,70.56,0,0,1-99.26-10.19Z"/><path class="cls-1" d="M355.38,547.83l1.12-.35Z"/><path class="cls-2" d="M406.35,477.36c-20.93-10.74-45.54-8.34-66.13,4.1a42.5,42.5,0,0,1-14.81,5.64l-.21,0v-118a64.62,64.62,0,0,0-64.62-64.62h-44V490.81a64.62,64.62,0,0,0,64.62,64.62h123.5a69.21,69.21,0,0,0-15.79-44.08Z"/><path class="cls-3" d="M346,555.45h58.64c-.23-10.73-1.52-17-5.83-27.88l-24.45,12A36.72,36.72,0,0,1,346,555.45Z"/><path class="cls-1" d="M280.6,351.78c5-4.6,13.15-14.29,26.78-14.29a35.12,35.12,0,0,1,10.53,1.79,64.61,64.61,0,0,0-57.33-34.81h-44v80.58C259.25,385.93,267.42,363.06,280.6,351.78Z"/><path class="cls-4" d="M257.14,342a14.24,14.24,0,0,0,20.15,0L287.37,332l-10.08-10.08A14.25,14.25,0,0,0,257.14,342Z"/><path class="cls-1" d="M396.58,496.36,374.39,539.5h0L415,519.65A69.4,69.4,0,0,0,396.58,496.36Z"/><path class="cls-5" d="M24,2.41a31.64,31.64,0,0,0-2.51,7.12L1.36,83.74A31.44,31.44,0,0,0,0,90.33L56,58.22Z"/><path class="cls-6" d="M116.19,23.7a31.78,31.78,0,0,0-6.37-2.15L35.61,1.43A30.87,30.87,0,0,0,28.2,0l32,55.81Z"/><path class="cls-6" d="M2.4,94.54a42.23,42.23,0,0,0,5.32,2.7l84.71,38.44c4.27,1.94,7.36,3,9.65,2.92L58.4,62.43Z"/><path class="cls-5" d="M106.29,136.18c1.19-2,1.87-5.14,2.35-9.79l9.62-92.54a41,41,0,0,0,.35-6L62.61,60Z"/><path class="cls-5" d="M137.37,152.72l-14.65-4.25a1.45,1.45,0,0,0-1.85,1.51l1.73,21.44a1.45,1.45,0,0,0,2.61.75L138.13,155A1.44,1.44,0,0,0,137.37,152.72Z"/><path class="cls-6" d="M179.93,161.24l-14-2.15a1.34,1.34,0,0,0-1.51,1.6L168.63,180a1.33,1.33,0,0,0,2.46.38l9.79-17.13A1.34,1.34,0,0,0,179.93,161.24Z"/><path class="cls-5" d="M219.86,163.91l-12.76-.35a1.2,1.2,0,0,0-1.16,1.6l5.92,16.71a1.21,1.21,0,0,0,2.25.06l6.83-16.36A1.19,1.19,0,0,0,219.86,163.91Z"/><path class="cls-6" d="M254.79,162.36l-11.16.92a1,1,0,0,0-.85,1.5l6.75,13.7a1,1,0,0,0,1.93-.16l4.42-14.62A1,1,0,0,0,254.79,162.36Z"/><path class="cls-5" d="M243.27,158l11-.91a1,1,0,0,0,.85-1.48L248.46,142a1,1,0,0,0-1.92.16l-4.34,14.55A1,1,0,0,0,243.27,158Z"/><path class="cls-5" d="M180.57,155.92l-13.94-2.16a1.35,1.35,0,0,1-1-2l9.82-17.29a1.34,1.34,0,0,1,2.48.38l4.12,19.45A1.34,1.34,0,0,1,180.57,155.92Z"/><path class="cls-6" d="M220.09,158.59l-12.67-.34a1.2,1.2,0,0,1-1.07-1.66l6.79-16.27a1.19,1.19,0,0,1,2.22.06L221.25,157A1.19,1.19,0,0,1,220.09,158.59Z"/><path class="cls-6" d="M138.81,147.35l-14.56-4.17a1.44,1.44,0,0,1-.76-2.25l12.78-17.13a1.44,1.44,0,0,1,2.59.74l1.79,21.3A1.45,1.45,0,0,1,138.81,147.35Z"/><path class="cls-4" d="M216.5,304.47c22.13,23.18,21.78,57.41,0,80.59Z"/><path class="cls-7" d="M216.3,578a10.4,10.4,0,1,1-10.39,10.39A10.39,10.39,0,0,1,216.3,578Zm-4,10.39a4,4,0,1,0,4-4A4,4,0,0,0,212.32,588.38Z"/><path class="cls-7" d="M247.66,578a10.4,10.4,0,1,1-10.4,10.39A10.39,10.39,0,0,1,247.66,578Zm-4,10.39a4,4,0,1,0,4-4A4,4,0,0,0,243.67,588.38Z"/><path class="cls-5" d="M256.13,539.5c5.62,0,6.06.44,6.06,6.06v30c0,5.62-.44,6.06-6.06,6.06H208.38c-6.68,0-7.58-1.16-5.86-7.62a29.54,29.54,0,0,1,28.53-21.9h1.36v-6.57c0-5.62.44-6.06,6.06-6.06Z"/><path class="cls-7" d="M309.78,579.78A10.39,10.39,0,1,1,307,594.22,10.4,10.4,0,0,1,309.78,579.78Zm2.54,10.84a4,4,0,1,0,1.06-5.53A4,4,0,0,0,312.32,590.62Z"/><path class="cls-7" d="M335.72,562.17A10.4,10.4,0,1,1,333,576.61,10.4,10.4,0,0,1,335.72,562.17ZM338.26,573a4,4,0,1,0,1.06-5.53A4,4,0,0,0,338.26,573Z"/><path class="cls-5" d="M321.13,525.57c4.65-3.16,5.26-3,8.42,1.61L346.41,552c3.15,4.66,3,5.27-1.61,8.42l-39.51,26.82c-5.54,3.75-6.93,3.29-9.14-3a29.53,29.53,0,0,1,11.31-34.13l1.13-.77-3.69-5.43c-3.16-4.65-3-5.27,1.61-8.42Z"/><path class="cls-6" d="M183.61,355.49a33.12,33.12,0,0,0,32.92,29.57c7.95-9.63,7.93-37.95,0-37.95-1.16,2.16-3.24,5.25-6.57,6.06-6.46,1.56-11.42-7-18.06-5.72C189.76,347.86,182.67,346.68,183.61,355.49Z"/><path class="cls-8" d="M105.93,148.76v73.12a14.55,14.55,0,0,0,14.55,14.55h24.87A14.55,14.55,0,0,1,159.9,251v79.38a14.54,14.54,0,0,0,14.55,14.55h22.34a14.54,14.54,0,0,1,14.55,14.55V381a14.55,14.55,0,0,0,14.55,14.55h2.6"/><circle class="cls-7" cx="267.22" cy="331.97" r="8.02"/><path class="cls-5" d="M216.54,304.47v42.64c-23.35-1.33-36.68,9.84-39.81,12.18a.14.14,0,0,1-.15,0,.16.16,0,0,1-.08-.13V344.51A40,40,0,0,1,216.54,304.47Z"/><path class="cls-1" d="M263.4,416.9,277,470.66a71.73,71.73,0,0,0,87.11,52l-13.86-54.9a70.56,70.56,0,0,0-85.68-51.14Z"/></g></g></svg>