<svg xmlns="http://www.w3.org/2000/svg" viewBox="0 0 1132.67 1634.26"><defs><style>.cls-1{fill:#df4d2d;}.cls-2{fill:#f1614d;}.cls-3{fill:#f5846c;}.cls-4{fill:#f0edef;fill-rule:evenodd;}.cls-5{fill:#716564;}.cls-6{fill:#a49691;}.cls-7{fill:#4d4544;}.cls-8{fill:none;stroke:#4d4544;stroke-miterlimit:10;stroke-width:6px;}</style></defs><g id="Layer_2" data-name="Layer 2"><g id="LOGO_ARARA_Big"><path class="cls-1" d="M343.37,1273.05l117.37-95.53c83.86-68.26,207.17-55.6,275.42,28.25l-119.85,97.55c-82.49,67.14-203.79,54.7-270.93-27.79Z"/><path class="cls-2" d="M970,1495.21l3.07-1Z"/><path class="cls-3" d="M1109.05,1302.88c-57.12-29.31-124.27-22.76-180.47,11.18a115.84,115.84,0,0,1-40.42,15.38l-.59.1V1007.37A176.36,176.36,0,0,0,711.21,831H591v508.57C591,1437,670,1516,767.35,1516h337.08a188.91,188.91,0,0,0-43.09-120.29Z"/><path class="cls-1" d="M944.39,1516h160c-.64-29.3-4.16-46.27-15.93-76.08l-66.73,32.69A100.1,100.1,0,0,1,944.39,1516Z"/><path class="cls-2" d="M765.84,960.13c13.79-12.28,35.91-39,73.09-39A95.61,95.61,0,0,1,867.67,926a176.31,176.31,0,0,0-156.46-95H591v219.94C707.57,1053.33,730.49,991.62,765.84,960.13Z"/><path class="cls-4" d="M701.83,933.54a38.87,38.87,0,0,0,55,0l27.5-27.49-27.5-27.5a38.88,38.88,0,0,0-55,55Z"/><path class="cls-2" d="M1082.39,1354.72l-60.55,117.76,110.83-54.2A189.75,189.75,0,0,0,1082.39,1354.72Z"/><path class="cls-5" d="M65.48,6.59C63,10.72,61.08,17,58.63,26L3.72,228.55C1.51,236.7.1,242.29,0,246.53L152.82,158.9Z"/><path class="cls-6" d="M317.13,64.69c-3.72-2-9.25-3.67-17.4-5.88L97.19,3.9C88.17,1.45,81.77,0,77,0L164.3,152.32Z"/><path class="cls-6" d="M6.56,258c3.32,2.19,8,4.42,14.5,7.36L252.28,370.32c11.63,5.28,20.07,8.07,26.33,7.95L159.41,170.38Z"/><path class="cls-5" d="M290.09,371.69c3.27-5.35,5.12-14,6.44-26.74L322.76,92.39c.74-7.08,1.19-12.25,1-16.23L170.89,163.8Z"/><path class="cls-5" d="M374.93,416.81l-40-11.58a4,4,0,0,0-5.05,4.13l4.72,58.5a4,4,0,0,0,7.12,2.06L377,423A4,4,0,0,0,374.93,416.81Z"/><path class="cls-6" d="M491.07,440.09,453,434.21a3.64,3.64,0,0,0-4.12,4.37l11.37,52.65a3.64,3.64,0,0,0,6.73,1l26.71-46.77A3.64,3.64,0,0,0,491.07,440.09Z"/><path class="cls-5" d="M600.08,447.35l-34.82-1a3.28,3.28,0,0,0-3.19,4.38l16.18,45.61a3.28,3.28,0,0,0,6.12.17L603,451.9A3.28,3.28,0,0,0,600.08,447.35Z"/><path class="cls-6" d="M695.41,443.12l-30.47,2.52a2.84,2.84,0,0,0-2.32,4.09l18.43,37.41a2.85,2.85,0,0,0,5.28-.44l12-39.92A2.85,2.85,0,0,0,695.41,443.12Z"/><path class="cls-5" d="M664,431.27l30-2.48a2.83,2.83,0,0,0,2.3-4.05l-18.21-37.23a2.82,2.82,0,0,0-5.24.43L661,427.65A2.82,2.82,0,0,0,664,431.27Z"/><path class="cls-5" d="M492.83,425.55l-38.06-5.89a3.67,3.67,0,0,1-2.62-5.43L478.94,367a3.66,3.66,0,0,1,6.77,1L497,421.17A3.66,3.66,0,0,1,492.83,425.55Z"/><path class="cls-6" d="M600.71,432.85l-34.59-1a3.26,3.26,0,0,1-2.92-4.51L581.72,383a3.26,3.26,0,0,1,6.08.16l16.07,45.35A3.27,3.27,0,0,1,600.71,432.85Z"/><path class="cls-6" d="M378.87,402.16l-39.76-11.38a3.93,3.93,0,0,1-2.07-6.14l34.88-46.75a3.94,3.94,0,0,1,7.08,2L383.88,398A3.94,3.94,0,0,1,378.87,402.16Z"/><path class="cls-4" d="M590.91,831c60.4,63.24,59.44,156.68,0,219.93Z"/><path class="cls-7" d="M590.35,1577.52A28.37,28.37,0,1,1,562,1605.89,28.37,28.37,0,0,1,590.35,1577.52Zm-10.87,28.37A10.88,10.88,0,1,0,590.35,1595,10.87,10.87,0,0,0,579.48,1605.89Z"/><path class="cls-7" d="M675.93,1577.52a28.37,28.37,0,1,1-28.37,28.37A28.37,28.37,0,0,1,675.93,1577.52Zm-10.87,28.37A10.88,10.88,0,1,0,675.93,1595,10.87,10.87,0,0,0,665.06,1605.89Z"/><path class="cls-5" d="M699.07,1472.48c15.34,0,16.54,1.2,16.54,16.54v82c0,15.35-1.2,16.55-16.54,16.55H568.75c-18.25,0-20.7-3.18-16-20.82A80.6,80.6,0,0,1,630.6,1507h3.71V1489c0-15.34,1.21-16.54,16.55-16.54Z"/><path class="cls-7" d="M845.43,1582.32a28.37,28.37,0,1,1-7.54,39.41A28.36,28.36,0,0,1,845.43,1582.32Zm6.93,29.58a10.88,10.88,0,1,0,2.89-15.1A10.88,10.88,0,0,0,852.36,1611.9Z"/><path class="cls-7" d="M916.24,1534.26a28.37,28.37,0,1,1-7.54,39.41A28.37,28.37,0,0,1,916.24,1534.26Zm6.93,29.58a10.88,10.88,0,1,0,2.9-15.1A10.89,10.89,0,0,0,923.17,1563.84Z"/><path class="cls-5" d="M876.39,1434.36c12.7-8.62,14.37-8.3,23,4.4l46,67.8c8.61,12.7,8.3,14.37-4.4,23l-107.83,73.18c-15.1,10.25-18.92,9-24.93-8.24a80.6,80.6,0,0,1,30.86-93.16l3.08-2.08-10.07-14.84c-8.62-12.7-8.3-14.36,4.4-23Z"/><path class="cls-6" d="M501.13,970.25A90.38,90.38,0,0,0,591,1050.94c21.69-26.26,21.66-103.57,0-103.57-3.14,5.91-8.83,14.35-17.91,16.54-17.64,4.26-31.18-19.09-49.31-15.62C517.91,949.42,498.57,946.21,501.13,970.25Z"/><path class="cls-8" d="M289.11,406V605.57a39.71,39.71,0,0,0,39.72,39.71H396.7A39.71,39.71,0,0,1,436.41,685V901.66a39.71,39.71,0,0,0,39.71,39.71h61a39.71,39.71,0,0,1,39.71,39.71V1040a39.71,39.71,0,0,0,39.71,39.71h7.07"/><circle class="cls-7" cx="729.33" cy="906.05" r="21.9"/><path class="cls-5" d="M591,831V947.37c-63.72-3.62-100.1,26.86-108.66,33.26a.39.39,0,0,1-.62-.31v-40A109.29,109.29,0,0,1,591,831Z"/><path class="cls-2" d="M718.9,1137.86,756,1284.59c26.46,104.83,132.9,168.36,237.74,141.9l-37.83-149.84C929.83,1173.53,825.13,1111,722,1137.07Z"/></g></g></svg>