<svg xmlns="http://www.w3.org/2000/svg" viewBox="0 0 207.5 299.39"><defs><style>.cls-1{fill:#f1614d;}.cls-2{fill:#f5846c;}.cls-3{fill:#df4d2d;}.cls-4{fill:#f0edef;fill-rule:evenodd;}.cls-5{fill:#716564;}.cls-6{fill:#a49691;}.cls-7{fill:#4d4544;}.cls-8{fill:none;stroke:#4d4544;stroke-miterlimit:10;stroke-width:6px;}</style></defs><g id="Layer_2" data-name="Layer 2"><g id="LOGO_ARARA"><path class="cls-1" d="M62.9,233.22l21.51-17.5a35.85,35.85,0,0,1,50.45,5.17l-22,17.87a35.29,35.29,0,0,1-49.64-5.09Z"/><path class="cls-1" d="M177.69,273.92l.56-.18Z"/><path class="cls-2" d="M203.17,238.68c-10.46-5.37-22.76-4.17-33.06,2a21.22,21.22,0,0,1-7.4,2.82l-.11,0v-59a32.31,32.31,0,0,0-32.31-32.31h-22V245.4a32.3,32.3,0,0,0,32.31,32.31h61.75a34.64,34.64,0,0,0-7.9-22Z"/><path class="cls-3" d="M173,277.73h29.32a34.7,34.7,0,0,0-2.92-13.94l-12.23,6A18.32,18.32,0,0,1,173,277.73Z"/><path class="cls-1" d="M140.3,175.89c2.48-2.3,6.58-7.15,13.39-7.15a17.55,17.55,0,0,1,5.26.9,32.29,32.29,0,0,0-28.66-17.4h-22v40.29C129.62,193,133.71,181.53,140.3,175.89Z"/><path class="cls-4" d="M128.57,171a7.13,7.13,0,0,0,10.08,0l5-5-5-5A7.12,7.12,0,0,0,128.57,171Z"/><path class="cls-1" d="M198.29,248.18,187.2,269.75h0l20.3-9.93A34.67,34.67,0,0,0,198.29,248.18Z"/><path class="cls-5" d="M12,1.21a15.32,15.32,0,0,0-1.26,3.55L.68,41.87A16.16,16.16,0,0,0,0,45.16l28-16Z"/><path class="cls-6" d="M58.1,11.85a15.9,15.9,0,0,0-3.19-1.08L17.8.71A16.08,16.08,0,0,0,14.1,0l16,27.9Z"/><path class="cls-6" d="M1.2,47.27a21.12,21.12,0,0,0,2.66,1.35L46.22,67.84A12.45,12.45,0,0,0,51,69.3L29.2,31.21Z"/><path class="cls-5" d="M53.14,68.09a12.42,12.42,0,0,0,1.18-4.9l4.81-46.26a21.52,21.52,0,0,0,.18-3L31.31,30Z"/><path class="cls-5" d="M68.68,76.36l-7.32-2.12a.72.72,0,0,0-.92.75l.86,10.72a.73.73,0,0,0,1.3.38l6.46-8.6A.72.72,0,0,0,68.68,76.36Z"/><path class="cls-6" d="M90,80.62l-7-1.07a.66.66,0,0,0-.76.8L84.31,90a.67.67,0,0,0,1.24.19l4.89-8.57A.67.67,0,0,0,90,80.62Z"/><path class="cls-5" d="M109.93,82l-6.38-.17a.6.6,0,0,0-.58.8l3,8.36a.6.6,0,0,0,1.12,0l3.42-8.18A.61.61,0,0,0,109.93,82Z"/><path class="cls-6" d="M127.4,81.18l-5.59.46a.52.52,0,0,0-.42.75l3.37,6.85a.52.52,0,0,0,1-.08l2.21-7.31A.53.53,0,0,0,127.4,81.18Z"/><path class="cls-5" d="M121.64,79l5.5-.46a.51.51,0,0,0,.42-.74L124.23,71a.52.52,0,0,0-1,.08l-2.17,7.27A.52.52,0,0,0,121.64,79Z"/><path class="cls-5" d="M90.28,78l-7-1.08a.67.67,0,0,1-.48-1l4.91-8.65a.67.67,0,0,1,1.24.19L91,77.16A.67.67,0,0,1,90.28,78Z"/><path class="cls-6" d="M110.05,79.3l-6.34-.18a.59.59,0,0,1-.53-.82l3.39-8.14a.6.6,0,0,1,1.11,0l2.95,8.31A.6.6,0,0,1,110.05,79.3Z"/><path class="cls-6" d="M69.41,73.67l-7.29-2.08a.73.73,0,0,1-.38-1.13l6.39-8.56a.72.72,0,0,1,1.3.37l.89,10.65A.71.71,0,0,1,69.41,73.67Z"/><path class="cls-4" d="M108.25,152.24c11.07,11.58,10.89,28.7,0,40.29Z"/><path class="cls-7" d="M108.15,289a5.2,5.2,0,1,1-5.2,5.2A5.2,5.2,0,0,1,108.15,289Zm-2,5.2a2,2,0,1,0,2-2A2,2,0,0,0,106.16,294.19Z"/><path class="cls-7" d="M123.83,289a5.2,5.2,0,1,1-5.2,5.2A5.2,5.2,0,0,1,123.83,289Zm-2,5.2a2,2,0,1,0,2-2A2,2,0,0,0,121.84,294.19Z"/><path class="cls-5" d="M128.07,269.75c2.81,0,3,.22,3,3v15c0,2.82-.22,3-3,3H104.19c-3.34,0-3.79-.59-2.93-3.82a14.76,14.76,0,0,1,14.26-10.94h.68v-3.29c0-2.81.22-3,3-3Z"/><path class="cls-7" d="M154.89,289.89a5.2,5.2,0,1,1-1.38,7.22A5.2,5.2,0,0,1,154.89,289.89Zm1.27,5.42a2,2,0,1,0,.53-2.77A2,2,0,0,0,156.16,295.31Z"/><path class="cls-7" d="M167.86,281.09a5.2,5.2,0,1,1-1.38,7.22A5.19,5.19,0,0,1,167.86,281.09Zm1.27,5.42a2,2,0,1,0,.53-2.77A2,2,0,0,0,169.13,286.51Z"/><path class="cls-5" d="M160.56,262.78c2.33-1.57,2.63-1.52,4.21.81L173.2,276c1.58,2.33,1.52,2.63-.8,4.21l-19.76,13.41c-2.76,1.88-3.46,1.65-4.56-1.51a14.77,14.77,0,0,1,5.65-17.07l.56-.38L152.45,272c-1.58-2.32-1.52-2.63.81-4.21Z"/><path class="cls-6" d="M91.81,177.75a16.55,16.55,0,0,0,16.46,14.78c4-4.81,4-19,0-19a5.58,5.58,0,0,1-3.28,3c-3.23.79-5.71-3.49-9-2.86C94.88,173.93,91.34,173.34,91.81,177.75Z"/><path class="cls-8" d="M53,74.38v36.56a7.27,7.27,0,0,0,7.28,7.27H72.67A7.28,7.28,0,0,1,80,125.49v39.69a7.27,7.27,0,0,0,7.27,7.28H98.4a7.27,7.27,0,0,1,7.27,7.27v10.79a7.28,7.28,0,0,0,7.28,7.27h1.29"/><circle class="cls-7" cx="133.61" cy="165.98" r="4.01"/><path class="cls-5" d="M108.27,152.24v21.31a28.42,28.42,0,0,0-19.91,6.1s0,0-.07,0a.05.05,0,0,1,0-.06v-7.33A20,20,0,0,1,108.27,152.24Z"/><path class="cls-1" d="M131.7,208.45l6.79,26.88a35.86,35.86,0,0,0,43.55,26l-6.93-27.45a35.28,35.28,0,0,0-42.84-25.57Z"/></g></g></svg>