<svg xmlns="http://www.w3.org/2000/svg" viewBox="0 0 384.91 124.62"><defs><style>.cls-1{fill:#4d4544;}.cls-2{fill:#f1614d;}</style></defs><g id="Layer_2" data-name="Layer 2"><g id="Layer_1-2" data-name="Layer 1"><path class="cls-1" d="M239.28,79.26c-18.55,0-33.64-15.72-33.64-35s15.09-35,33.64-35a32.89,32.89,0,0,1,23.88,10.4,2,2,0,0,0,2.91,0l3.62-3.56a2.08,2.08,0,0,0,0-2.93A42,42,0,0,0,239.28,0c-23.65,0-42.83,19.8-42.83,44.22s19.18,44.23,42.83,44.23c20.2,0,37.12-14.45,41.63-33.88h-9.49C267.17,68.86,254.37,79.26,239.28,79.26Z"/><path class="cls-1" d="M42.82,79.26c-18.55,0-33.64-15.72-33.64-35s15.09-35,33.64-35A32.89,32.89,0,0,1,66.7,19.58a2,2,0,0,0,2.92,0l3.62-3.56a2.07,2.07,0,0,0,0-2.93A42,42,0,0,0,42.82,0C19.17,0,0,19.8,0,44.22S19.17,88.45,42.82,88.45C63,88.45,79.94,74,84.45,54.57H75C70.72,68.86,57.92,79.26,42.82,79.26Z"/><path class="cls-1" d="M208.09,65.89a5.84,5.84,0,0,0,.53.62C208.43,66.3,208.26,66.1,208.09,65.89Z"/><path class="cls-1" d="M253.66,69.47A31,31,0,0,0,256.59,68,26,26,0,0,1,253.66,69.47Z"/><path class="cls-1" d="M271.39,67.85a.53.53,0,0,1-.13.16,1.85,1.85,0,0,1-.28.28A5.49,5.49,0,0,0,271.39,67.85Z"/><path class="cls-1" d="M186.24,44.52a.17.17,0,0,0,0-.1c0-.29,0-.56-.07-.84a12.41,12.41,0,0,0-.26-1.94,7.6,7.6,0,0,0-.16-.83c-.13-.6-.29-1.17-.47-1.73-.09-.28-.19-.57-.29-.83s-.21-.55-.32-.83a17.62,17.62,0,0,0-1.15-2.3c-.26-.44-.54-.86-.81-1.26A17.44,17.44,0,0,0,181,31.78a7.73,7.73,0,0,0-.58-.56c-.2-.2-.39-.37-.6-.55a7.52,7.52,0,0,0-.64-.51l-.42-.32a14.19,14.19,0,0,0-1.6-1l-.71-.38c-.47-.22-1-.43-1.48-.61a7.49,7.49,0,0,0-.76-.25,6.7,6.7,0,0,0-.74-.19,7.39,7.39,0,0,0-1-.19,3.5,3.5,0,0,0-.66-.1l-.7-.07c-.31,0-.6,0-.91,0h0c-.31,0-.6,0-.9,0a13,13,0,0,0-2.45.38,5.5,5.5,0,0,0-.58.16,13.68,13.68,0,0,0-2.16.81c-.28.13-.53.26-.79.4a16.24,16.24,0,0,0-3.73,2.81,20.39,20.39,0,0,0-1.75,2c-.18.24-.34.48-.52.74a20.57,20.57,0,0,0-1.21,2.17,20,20,0,0,0-.94,2.34c-.12.34-.21.68-.31,1l-.05.2c-.11.42-.21.84-.29,1.26a17.81,17.81,0,0,0-.34,2.64c0,.46,0,.91,0,1.36,0,7.31,3.74,13.63,9.15,16.6a14.31,14.31,0,0,0,13.86,0,2,2,0,0,0,2,1.8h5.06a2.08,2.08,0,0,0,2.07-2.06V45.39A8.43,8.43,0,0,0,186.24,44.52ZM170.18,54.58c-3.72,0-6.88-4.2-6.88-9.19a10.62,10.62,0,0,1,2.54-7.06,6.62,6.62,0,0,1,.53-.53,5.76,5.76,0,0,1,3.83-1.59A5.66,5.66,0,0,1,174,37.8a10.39,10.39,0,0,1,3.06,7.59C177.07,50.38,173.91,54.58,170.18,54.58Z"/><path class="cls-1" d="M117.9,63.77A2.07,2.07,0,0,0,120,61.7V45.39c0-7.32-3.76-13.66-9.19-16.61A14.39,14.39,0,0,0,103.9,27,14.2,14.2,0,0,0,97,28.8c-5.43,2.95-9.19,9.27-9.19,16.59V61.7a2.07,2.07,0,0,0,2.07,2.07h5.05A2.07,2.07,0,0,0,97,61.7V45.39c0-5,3.16-9.18,6.9-9.18s6.88,4.21,6.88,9.18V61.7a2.07,2.07,0,0,0,2.07,2.07Z"/><rect class="cls-1" x="125.74" y="8.65" width="9.19" height="55.11" rx="2.07"/><rect class="cls-1" x="140.47" y="27.02" width="9.19" height="36.74" rx="1.69"/><rect class="cls-1" x="119.97" y="27.02" width="29.69" height="9.19" rx="2.06"/><rect class="cls-1" x="110.78" y="54.57" width="24.14" height="9.19" rx="1.86"/><path class="cls-1" d="M82.16,37.91V62.05a1.71,1.71,0,0,1-1.52,1.71H74.29a1.73,1.73,0,0,1-1.51-1.71V37.91a1.7,1.7,0,0,1,1.7-1.7h6A1.7,1.7,0,0,1,82.16,37.91Z"/><circle class="cls-1" cx="145.06" cy="20.37" r="4.59"/><circle class="cls-1" cx="76.59" cy="26.41" r="4.59"/><path class="cls-1" d="M97,56.42v5.49a1.86,1.86,0,0,1-1.87,1.85H74.83a2.28,2.28,0,0,1-.44,0A1.85,1.85,0,0,1,73,61.91V56.42a1.85,1.85,0,0,1,1.86-1.85h20.3A1.86,1.86,0,0,1,97,56.42Z"/><path class="cls-1" d="M281.4,27a12.27,12.27,0,0,0-1.36.06,14.92,14.92,0,0,0-8.43,3.74,19.36,19.36,0,0,0-6.28,14.57,19.46,19.46,0,0,0,5.57,13.9,15.12,15.12,0,0,0,8.15,4.28,14.06,14.06,0,0,0,2.35.19c8.88,0,16.07-8.23,16.07-18.37S290.28,27,281.4,27Zm.79,27.49a4.21,4.21,0,0,1-.79.06c-3.73,0-6.89-4.21-6.89-9.18s3.16-9.19,6.89-9.19a4.94,4.94,0,0,1,1.28.18c3.16.81,5.61,4.6,5.61,9C288.29,50,285.58,54,282.19,54.52Z"/><path class="cls-1" d="M368.83,27c-8.88,0-16.07,8.22-16.07,18.37S360,63.76,368.83,63.76s16.08-8.23,16.08-18.37S377.71,27,368.83,27Zm0,27.55c-3.73,0-6.89-4.2-6.89-9.18s3.16-9.19,6.89-9.19,6.89,4.21,6.89,9.19S372.56,54.57,368.83,54.57Z"/><path class="cls-1" d="M332.35,27a2.06,2.06,0,0,1,2.06,2.06V45.39c0,7.33-3.76,13.66-9.18,16.61a14.44,14.44,0,0,1-6.89,1.77,14.21,14.21,0,0,1-6.9-1.79c-5.43-2.95-9.19-9.26-9.19-16.59V29.08A2.07,2.07,0,0,1,304.32,27h5.05a2.07,2.07,0,0,1,2.07,2.06V45.39c0,5,3.16,9.19,6.9,9.19s6.89-4.21,6.89-9.19V29.08A2.06,2.06,0,0,1,327.29,27Z"/><rect class="cls-1" x="339.12" y="8.69" width="9.19" height="55.11" rx="2.07"/><rect class="cls-1" x="327" y="27.06" width="26.75" height="9.19" rx="1.96"/><rect class="cls-1" x="278.77" y="27.06" width="32.67" height="9.19" rx="2.16"/><path class="cls-2" d="M29.92,123.57a16.14,16.14,0,0,1-5.39,1A9,9,0,0,1,18,122.22a9,9,0,0,1-2.45-6.54c0-5.24,3.62-9.07,9.51-9.07a10.88,10.88,0,0,1,4.37.81l-.54,1.85a9.08,9.08,0,0,0-3.89-.75c-4.27,0-7.06,2.65-7.06,7.06s2.69,7.08,6.78,7.08a7.4,7.4,0,0,0,3-.47V117H24.14v-1.83h5.78Z"/><path class="cls-2" d="M42.77,107a24.09,24.09,0,0,1,4.35-.36c2.43,0,4,.44,5.08,1.43a4.35,4.35,0,0,1,1.38,3.33,4.6,4.6,0,0,1-3.31,4.48V116c1.36.47,2.17,1.72,2.58,3.54a27.7,27.7,0,0,0,1.36,4.82H51.86a23.57,23.57,0,0,1-1.17-4.19c-.52-2.42-1.46-3.33-3.52-3.41H45v7.6H42.77ZM45,115h2.32c2.42,0,4-1.33,4-3.34,0-2.26-1.64-3.25-4-3.28a9.45,9.45,0,0,0-2.24.21Z"/><path class="cls-2" d="M69.14,118.83l-1.82,5.52H65l6-17.55h2.73l6,17.55H77.24l-1.87-5.52Zm5.76-1.77-1.72-5c-.39-1.15-.65-2.19-.91-3.21h-.06c-.26,1-.54,2.11-.88,3.18l-1.72,5.08Z"/><path class="cls-2" d="M91.63,107a26.67,26.67,0,0,1,4.35-.33,7.19,7.19,0,0,1,4.92,1.46,4.68,4.68,0,0,1,1.54,3.67,5.15,5.15,0,0,1-1.36,3.75,7.24,7.24,0,0,1-5.36,1.93,7.89,7.89,0,0,1-1.83-.16v7H91.63Zm2.26,8.47a7.67,7.67,0,0,0,1.88.18c2.74,0,4.4-1.32,4.4-3.75s-1.64-3.44-4.14-3.44a9.16,9.16,0,0,0-2.14.19Z"/><path class="cls-2" d="M117.14,106.8v7.34h8.49V106.8h2.29v17.55h-2.29v-8.23h-8.49v8.23h-2.27V106.8Z"/><path class="cls-2" d="M143.51,106.8v17.55h-2.27V106.8Z"/><path class="cls-2" d="M169.12,123.78a11.2,11.2,0,0,1-4.64.84c-4.95,0-8.67-3.13-8.67-8.89,0-5.5,3.72-9.22,9.17-9.22a9.45,9.45,0,0,1,4.16.78l-.54,1.85a8.24,8.24,0,0,0-3.55-.73c-4.11,0-6.85,2.63-6.85,7.24,0,4.3,2.48,7.06,6.75,7.06a9,9,0,0,0,3.7-.73Z"/><path class="cls-2" d="M196.24,107a32.48,32.48,0,0,1,4.82-.36c3.26,0,5.58.75,7.12,2.18a8.12,8.12,0,0,1,2.47,6.31,9.28,9.28,0,0,1-2.53,6.82c-1.64,1.64-4.35,2.53-7.76,2.53a36.8,36.8,0,0,1-4.12-.21Zm2.27,15.53a14.81,14.81,0,0,0,2.29.13c4.85,0,7.48-2.71,7.48-7.45,0-4.15-2.32-6.78-7.11-6.78a12.87,12.87,0,0,0-2.66.24Z"/><path class="cls-2" d="M232.07,116.12h-6.83v6.33h7.61v1.9H223V106.8h9.48v1.9h-7.22v5.55h6.83Z"/><path class="cls-2" d="M244.87,121.59a8,8,0,0,0,4.06,1.15c2.32,0,3.67-1.22,3.67-3s-.93-2.58-3.31-3.49c-2.86-1-4.63-2.5-4.63-5,0-2.74,2.26-4.77,5.68-4.77a8,8,0,0,1,3.88.86l-.63,1.85a7,7,0,0,0-3.33-.83c-2.4,0-3.31,1.43-3.31,2.63,0,1.64,1.07,2.45,3.49,3.38,3,1.15,4.48,2.58,4.48,5.16s-2,5.06-6.15,5.06a9,9,0,0,1-4.48-1.13Z"/><path class="cls-2" d="M269.67,106.8v17.55h-2.26V106.8Z"/><path class="cls-2" d="M296.38,123.57a16.21,16.21,0,0,1-5.4,1,8.25,8.25,0,0,1-9-8.86c0-5.24,3.62-9.07,9.51-9.07a11,11,0,0,1,4.38.81l-.55,1.85a9.07,9.07,0,0,0-3.88-.75c-4.27,0-7.06,2.65-7.06,7.06s2.68,7.08,6.77,7.08a7.36,7.36,0,0,0,3-.47V117h-3.57v-1.83h5.79Z"/><path class="cls-2" d="M309.23,124.35V106.8h2.47l5.63,8.88a50.26,50.26,0,0,1,3.15,5.7l0,0c-.21-2.35-.26-4.48-.26-7.22V106.8h2.14v17.55h-2.3l-5.57-8.91a54.26,54.26,0,0,1-3.28-5.86l-.08,0c.13,2.21.18,4.32.18,7.24v7.5Z"/><path class="cls-2" d="M344.84,116.12H338v6.33h7.6v1.9h-9.87V106.8h9.48v1.9H338v5.55h6.82Z"/><path class="cls-2" d="M358,107a24.09,24.09,0,0,1,4.35-.36c2.42,0,4,.44,5.08,1.43a4.35,4.35,0,0,1,1.38,3.33,4.6,4.6,0,0,1-3.31,4.48V116c1.36.47,2.17,1.72,2.58,3.54a27.7,27.7,0,0,0,1.36,4.82H367a23.57,23.57,0,0,1-1.17-4.19c-.52-2.42-1.46-3.33-3.52-3.41h-2.13v7.6H358Zm2.27,8h2.32c2.42,0,4-1.33,4-3.34,0-2.26-1.65-3.25-4-3.28a9.45,9.45,0,0,0-2.24.21Z"/></g></g></svg>