<svg xmlns="http://www.w3.org/2000/svg" width="113.41" height="113.956" viewBox="0 0 113.41 113.956">
  <g id="Email_Icon" transform="translate(56.705 56.978)">
    <g id="Group_89" data-name="Group 89" transform="translate(-56.705 -56.978)">
      <path id="Path_1046" data-name="Path 1046" d="M27.6,80.133a33.569,33.569,0,0,0,59.986,0" transform="translate(0 0)" fill="none" stroke="#ffebe3" stroke-linecap="round" stroke-miterlimit="10" stroke-width="3"/>
      <g id="Group_87" data-name="Group 87" transform="translate(0 0)">
        <ellipse id="Ellipse_101" data-name="Ellipse 101" cx="2.621" cy="6.115" rx="2.621" ry="6.115" transform="translate(41.783 65.728)" fill="#ffebe3"/>
        <ellipse id="Ellipse_102" data-name="Ellipse 102" cx="2.621" cy="6.115" rx="2.621" ry="6.115" transform="translate(66.385 65.728)" fill="#ffebe3"/>
      </g>
      <g id="Group_88" data-name="Group 88" transform="translate(0 0)">
        <path id="Path_1047" data-name="Path 1047" d="M57.524,12.406A6.3,6.3,0,0,1,64.1,18.789c0,3.5-2.316,5.152-4.13,5.152A1.872,1.872,0,0,1,57.941,22.4l-.021-.125a3.824,3.824,0,0,1-3,1.669,3.186,3.186,0,0,1-3.234-3.5A5.07,5.07,0,0,1,56.4,15.326a2.879,2.879,0,0,1,2.607,1.4l.229-1.106h2.358l-1.064,5.09a4.059,4.059,0,0,0-.063.5c0,.646.334.938.772.938.813,0,1.961-.98,1.961-3.358,0-3.3-2.253-5.57-5.757-5.57a7.577,7.577,0,0,0-7.385,7.364,5.716,5.716,0,0,0,5.883,5.8,7.081,7.081,0,0,0,3.817-1.147l.438.626a8.03,8.03,0,0,1-4.339,1.314,6.446,6.446,0,0,1-6.612-6.549A8.471,8.471,0,0,1,57.524,12.406Zm1.147,5.861A1.878,1.878,0,0,0,56.982,17.2,3,3,0,0,0,54.1,20.228a1.682,1.682,0,0,0,1.731,1.835,2.919,2.919,0,0,0,2.316-1.355Z" fill="#ffebe3"/>
      </g>
      <path id="Path_1048" data-name="Path 1048" d="M96.747,10.643C87.027,3.68,73.285,0,57.007,0,47.782,0,0-.142,0,46.476v54.38a13.119,13.119,0,0,0,13.1,13.1h87.21a13.119,13.119,0,0,0,13.1-13.1V46.476C113.41,28.294,106.679,17.757,96.747,10.643ZM57.007,3c39.626,0,50.269,20.144,52.818,34.5a13.055,13.055,0,0,0-9.515-4.126H13.1A13.055,13.055,0,0,0,3.433,37.67C5.842,22.2,16.911,3,57.007,3ZM110.03,42.816,43.96,60.106l-.17.06a16.311,16.311,0,0,1-14.42-1.3l-26-16.03a10.4,10.4,0,0,1,9.73-6.75h87.21A10.4,10.4,0,0,1,110.03,42.816Zm.67,3.66v54.38a10.4,10.4,0,0,1-10.39,10.39H13.1a10.4,10.4,0,0,1-10.39-10.39V46.476c0-.17,0-.34.01-.51L27.8,61.416a19.288,19.288,0,0,0,17,1.57c70.253-18.387,65.28-17.132,65.874-17.132C110.689,46.059,110.7,46.263,110.7,46.476Z" transform="translate(0 0)" fill="#ffebe3"/>
    </g>
  </g>
</svg>
